<?xml version="1.0" standalone="no"?>
<!DOCTYPE svg PUBLIC "-//W3C//DTD SVG 20010904//EN"
 "http://www.w3.org/TR/2001/REC-SVG-20010904/DTD/svg10.dtd">
<svg version="1.0" xmlns="http://www.w3.org/2000/svg"
 width="1024.000000pt" height="1024.000000pt" viewBox="0 0 1024.000000 1024.000000"
 preserveAspectRatio="xMidYMid meet">

<g transform="translate(0.000000,1024.000000) scale(0.100000,-0.100000)"
fill="#000000" stroke="none">
<path d="M4070 8579 c-21 -9 -47 -31 -59 -48 -35 -48 -135 -274 -371 -836 -51
-121 -106 -251 -123 -290 -16 -38 -60 -144 -97 -235 -37 -91 -116 -282 -175
-425 -58 -143 -121 -298 -139 -345 -31 -79 -134 -348 -298 -775 -38 -99 -94
-245 -123 -325 -29 -80 -67 -183 -85 -230 -96 -254 -236 -658 -442 -1275 -126
-379 -250 -744 -275 -810 -80 -209 -119 -307 -172 -427 -57 -130 -59 -158 -11
-183 15 -8 45 -17 66 -20 22 -4 524 -7 1117 -8 1071 -2 1078 -2 1082 18 2 11
9 49 15 85 15 91 113 448 155 569 19 55 35 102 35 104 0 6 -67 0 -205 -18
-112 -15 -558 -58 -718 -70 l-88 -7 7 84 c7 107 8 108 44 108 17 0 108 14 203
30 94 17 215 37 267 46 52 9 105 18 118 20 22 4 22 7 22 150 l0 145 -35 33
-35 33 0 156 0 156 57 -34 c79 -48 170 -63 336 -57 48 2 63 7 85 29 55 55 147
27 245 -76 96 -101 66 -96 507 -99 549 -5 623 6 710 106 55 62 68 70 144 86
l65 13 31 -27 c23 -21 44 -29 89 -33 127 -11 303 26 346 73 10 11 22 20 27 20
12 0 10 -271 -2 -307 -7 -19 -24 -36 -45 -46 l-35 -17 1 -87 c1 -49 4 -115 8
-148 l6 -60 75 -12 c116 -19 487 -82 562 -95 l67 -12 6 -45 c3 -26 8 -63 10
-83 l5 -38 -57 0 c-68 0 -306 22 -548 50 -300 35 -285 34 -285 16 0 -8 11 -45
25 -81 28 -75 101 -358 140 -545 15 -69 28 -126 29 -127 1 -1 478 -3 1059 -3
l1057 -2 48 24 c70 34 69 51 -22 276 -91 226 -176 454 -210 559 -13 43 -49
148 -80 233 -31 85 -76 219 -101 297 -120 379 -642 1941 -674 2013 -10 24
-107 296 -229 645 -101 285 -260 719 -372 1010 -34 88 -76 201 -95 250 -42
114 -157 408 -195 500 -16 39 -52 125 -79 192 -27 67 -64 143 -81 168 -57 83
41 76 -1183 78 -990 2 -1094 0 -1127 -14z m1198 -1083 c277 -218 567 -544 703
-791 18 -33 40 -71 50 -85 38 -56 201 -423 286 -645 93 -245 331 -972 397
-1215 13 -47 35 -123 49 -170 47 -155 105 -373 131 -495 57 -257 77 -358 72
-363 -6 -6 -190 13 -331 34 -55 9 -114 16 -132 17 l-32 1 -3 260 c-3 244 -4
264 -25 309 -27 59 -106 136 -170 167 -46 23 -57 24 -233 21 l-184 -2 -116 42
c-63 23 -134 48 -158 57 -31 11 -52 28 -72 57 -16 24 -37 46 -47 49 -68 27
-651 32 -716 7 -19 -7 -35 -26 -48 -56 -11 -25 -30 -52 -42 -59 -28 -18 -242
-81 -327 -96 -49 -9 -91 -9 -181 1 -65 6 -138 10 -162 7 -106 -12 -218 -100
-256 -201 -19 -53 -21 -77 -21 -302 l0 -245 -53 0 c-28 0 -99 -9 -157 -20 -57
-11 -139 -23 -181 -26 l-77 -7 23 110 c13 61 35 148 49 194 13 46 57 192 96
324 129 432 451 1325 612 1700 106 246 255 532 363 697 197 300 426 550 676
737 51 39 97 71 102 71 5 0 57 -38 115 -84z m37 -3006 c157 -11 339 -53 411
-95 56 -33 100 -86 152 -184 57 -106 73 -107 56 -3 -7 42 -13 95 -13 116 l-1
39 125 -5 c109 -5 133 -9 180 -32 75 -37 98 -76 85 -145 -21 -111 -56 -127
-260 -116 -74 4 -143 11 -152 16 -9 5 -35 44 -58 87 -51 99 -116 165 -187 192
-74 28 -235 40 -538 40 -403 0 -556 -24 -675 -107 -43 -31 -62 -54 -96 -116
-23 -43 -48 -85 -56 -93 -12 -12 -48 -15 -183 -15 -192 0 -202 3 -243 82 -44
83 -7 152 98 183 63 19 240 31 259 18 12 -9 12 -24 1 -103 -7 -52 -15 -100
-18 -107 -3 -10 4 -13 29 -10 31 3 37 10 77 83 23 44 58 96 78 116 125 128
487 190 929 159z m325 -317 c29 -33 54 -100 48 -131 -4 -21 -107 -91 -184
-125 -113 -50 -198 -62 -424 -62 -262 0 -412 25 -497 82 -47 31 -103 84 -103
96 0 19 60 137 80 157 20 20 32 20 536 18 l515 -2 29 -33z"/>
<path d="M5068 6508 c-78 -140 -171 -336 -230 -488 -61 -154 -134 -358 -142
-395 l-7 -30 363 3 c200 2 398 -1 441 -5 42 -5 79 -7 81 -5 2 2 -2 22 -9 45
-7 23 -34 110 -60 192 -60 193 -141 399 -216 547 -65 130 -136 248 -149 248
-5 0 -37 -51 -72 -112z"/>
<path d="M4739 5326 c-204 -26 -273 -60 -359 -177 -66 -87 -181 -319 -187
-373 -7 -57 17 -101 63 -121 67 -28 120 -13 162 44 34 47 29 68 -23 92 -43 20
-54 39 -37 65 19 30 250 120 381 149 238 53 554 45 821 -20 52 -12 108 -26
124 -29 l29 -7 -6 54 c-7 73 -52 184 -91 225 -33 35 -132 71 -256 92 -103 18
-497 21 -621 6z"/>
<path d="M5748 4791 c-38 -39 -39 -40 -24 -69 54 -104 230 -91 213 16 -9 53
-55 92 -108 92 -35 0 -48 -6 -81 -39z"/>
<path d="M4065 4761 c-70 -34 -122 -84 -131 -127 -5 -29 -3 -32 27 -43 17 -6
47 -11 65 -11 30 0 34 3 34 28 0 45 17 90 49 131 49 61 43 64 -44 22z"/>
<path d="M6020 4785 c0 -4 12 -21 27 -39 30 -36 73 -123 73 -148 0 -21 1 -21
65 -5 45 12 50 16 53 44 6 59 -80 130 -180 148 -21 4 -38 4 -38 0z"/>
<path d="M3942 4248 c-18 -18 -15 -84 4 -103 9 -9 24 -15 33 -13 23 4 27 72 6
104 -17 27 -26 29 -43 12z"/>
<path d="M6146 4252 c-10 -16 -17 -82 -11 -101 9 -30 50 -27 71 4 17 26 13 67
-8 92 -11 14 -44 17 -52 5z"/>
<path d="M4645 4120 c-61 -8 -99 -36 -93 -69 4 -22 82 -78 126 -91 54 -17 485
-24 627 -11 148 13 210 31 260 74 32 28 37 37 32 59 -4 14 -15 30 -24 34 -23
11 -848 14 -928 4z"/>
<path d="M4277 3842 c-9 -10 -20 -32 -23 -49 -7 -35 14 -53 58 -53 47 0 64 53
32 98 -18 27 -45 28 -67 4z"/>
<path d="M5810 3831 c-37 -69 17 -114 90 -76 35 18 35 17 15 54 -23 45 -85 58
-105 22z"/>
<path d="M6255 3843 c-27 -2 -54 -8 -59 -14 -6 -5 -29 -9 -52 -9 -22 0 -62 -3
-88 -6 l-46 -7 0 -46 c0 -54 -37 -118 -73 -126 -69 -16 -153 -9 -178 16 l-20
20 7 -38 c9 -54 30 -83 65 -90 25 -5 35 -15 54 -59 31 -71 49 -79 176 -78 117
1 166 14 174 48 6 22 12 129 14 232 l1 62 45 -6 45 -5 0 57 c0 31 -3 55 -7 54
-5 -1 -30 -3 -58 -5z"/>
<path d="M3820 3797 c0 -49 9 -57 64 -57 l32 0 -4 -132 c-5 -159 2 -183 55
-197 79 -22 269 -6 305 26 9 8 19 37 23 64 l7 49 49 0 c27 0 49 3 49 8 1 4 5
26 9 50 5 23 8 42 7 42 0 0 -23 -7 -50 -15 -94 -29 -168 7 -210 101 -9 21 -21
46 -25 54 -8 15 -89 30 -238 45 l-73 7 0 -45z"/>
<path d="M4584 3663 c-27 -4 -36 -12 -62 -66 -17 -34 -39 -82 -50 -107 l-19
-45 591 -1 c325 0 602 -4 614 -8 28 -9 28 -8 -24 130 l-35 91 -91 7 c-95 6
-870 6 -924 -1z"/>
<path d="M27 103 c-25 -4 -27 -8 -27 -54 0 -48 1 -49 30 -49 30 0 30 1 30 55
0 30 -1 54 -2 54 -2 -1 -15 -4 -31 -6z"/>
</g>
</svg>
