<?xml version="1.0" standalone="no"?>
<!DOCTYPE svg PUBLIC "-//W3C//DTD SVG 20010904//EN"
 "http://www.w3.org/TR/2001/REC-SVG-20010904/DTD/svg10.dtd">
<svg version="1.0" xmlns="http://www.w3.org/2000/svg"
 width="1024.000000pt" height="1024.000000pt" viewBox="0 0 1024.000000 1024.000000"
 preserveAspectRatio="xMidYMid meet">

<g transform="translate(0.000000,1024.000000) scale(0.100000,-0.100000)"
fill="#000000" stroke="none">
<path d="M6925 10198 c-56 -66 -184 -253 -205 -304 -14 -32 -20 -68 -20 -120
l0 -74 113 -109 c61 -60 150 -139 195 -175 69 -54 90 -66 120 -66 46 1 135 30
199 66 26 15 71 39 98 54 282 150 699 401 865 519 74 53 153 109 175 124 22
15 71 49 109 77 l69 50 -840 0 -840 0 -38 -42z"/>
<path d="M2830 9940 c-9 -6 -10 -10 -3 -10 6 0 15 5 18 10 8 12 4 12 -15 0z"/>
<path d="M2570 9713 c-9 -7 -20 -10 -22 -7 -3 2 -11 -2 -18 -11 -10 -13 -9
-15 9 -15 18 0 21 -6 21 -40 0 -33 -3 -40 -20 -40 -13 0 -20 -7 -20 -20 0 -13
-7 -20 -20 -20 -18 0 -20 7 -20 55 l0 55 -42 -22 c-24 -12 -45 -25 -48 -29
-10 -14 -107 -26 -126 -16 -12 7 -23 6 -37 -2 -15 -10 -22 -10 -31 0 -8 9 -7
11 7 6 9 -4 17 -3 17 2 0 4 10 13 23 18 21 10 21 11 3 19 -13 5 -21 3 -24 -4
-2 -7 -8 -12 -13 -12 -5 0 -21 -7 -35 -16 -20 -14 -22 -19 -12 -32 10 -12 10
-14 1 -8 -7 4 -13 2 -13 -3 0 -6 7 -11 15 -11 13 0 13 -3 -2 -19 -14 -15 -31
-19 -76 -19 -31 1 -60 -2 -64 -6 -3 -3 -15 -6 -25 -6 -10 0 -18 -4 -18 -10 0
-5 -6 -10 -12 -10 -7 0 -31 -16 -53 -35 -22 -19 -45 -39 -52 -45 -7 -5 -15
-10 -18 -10 -9 0 -147 -98 -185 -131 -19 -17 -43 -34 -52 -37 -32 -13 -283
-228 -387 -332 -97 -96 -199 -212 -291 -330 -99 -126 -429 -652 -523 -832 -24
-47 -55 -101 -68 -119 -38 -54 -109 -201 -102 -212 3 -5 15 8 25 30 10 22 29
51 41 64 19 20 22 21 25 7 2 -9 -1 -25 -6 -35 -12 -21 -4 -73 10 -73 6 0 8
-24 6 -57 l-3 -58 33 -3 c23 -2 32 -8 32 -22 0 -15 9 -19 51 -22 41 -2 54 1
70 18 10 11 19 24 19 28 0 5 11 17 25 28 14 11 25 25 25 33 0 7 7 15 15 19 9
3 15 19 15 41 0 27 4 35 18 35 9 0 26 12 37 26 11 14 30 30 42 35 16 6 23 17
23 34 0 18 5 25 19 25 15 0 21 10 26 40 4 22 10 40 14 40 12 0 50 88 57 130 6
34 10 40 26 35 10 -4 17 -3 16 2 -3 11 22 56 36 65 6 4 19 8 29 8 14 0 17 -5
12 -20 -3 -11 -4 -20 -1 -20 7 0 69 112 69 126 0 7 4 11 8 8 5 -2 16 10 25 28
9 18 39 66 66 106 26 41 45 78 42 84 -4 6 -2 8 3 5 6 -4 24 10 41 31 45 55
134 165 216 267 75 93 397 416 476 479 247 195 468 348 643 446 53 30 93 56
88 58 -5 2 -31 -11 -59 -28 -29 -18 -56 -28 -66 -24 -9 3 -16 1 -16 -5 0 -6
-12 -11 -27 -10 -24 0 -21 8 4 12 16 2 32 25 30 46 -1 21 -15 27 -33 13 -5 -4
-29 -5 -54 -1 -25 3 -35 7 -23 7 13 1 28 11 35 22 12 19 39 28 37 13 -4 -28 1
-35 17 -22 13 10 17 10 24 -1 5 -8 6 -18 3 -24 -3 -5 -1 -6 6 -2 6 4 9 11 6
16 -3 4 2 10 10 14 18 7 20 56 3 56 -7 1 -2 7 12 15 21 11 26 11 33 -1 5 -8
24 -14 46 -14 41 0 53 -13 46 -50 -2 -11 -2 -20 0 -20 2 0 40 19 85 41 60 31
78 44 68 51 -9 7 -3 8 17 4 27 -5 28 -4 8 6 -33 16 -36 37 -6 44 l26 7 -24 13
c-13 7 -37 14 -54 15 -30 1 -30 1 -5 9 18 6 4 8 -47 9 -55 1 -73 4 -73 15 0
19 -86 26 -110 9z m240 -67 c0 -3 -4 -8 -10 -11 -5 -3 -10 -1 -10 4 0 6 5 11
10 11 6 0 10 -2 10 -4z m-290 -116 c0 -5 -7 -10 -16 -10 -8 0 -12 5 -9 10 3 6
10 10 16 10 5 0 9 -4 9 -10z m-2123 -1872 c-3 -7 -5 -2 -5 12 0 14 2 19 5 13
2 -7 2 -19 0 -25z m-14 -43 c-3 -8 -9 -15 -14 -15 -5 0 -9 -8 -9 -17 0 -13 -3
-14 -11 -6 -9 9 -8 18 5 38 17 26 40 26 29 0z"/>
<path d="M3000 9630 c-21 -7 -21 -8 -5 -9 11 0 27 4 35 9 18 11 5 11 -30 0z"/>
<path d="M2890 9591 c0 -5 9 -7 20 -4 11 3 20 7 20 9 0 2 -9 4 -20 4 -11 0
-20 -4 -20 -9z"/>
<path d="M2100 9560 c0 -5 -9 -10 -20 -10 -11 0 -20 -4 -20 -10 0 -16 16 -12
41 10 13 10 18 19 12 20 -7 0 -13 -4 -13 -10z"/>
<path d="M4370 9544 c-319 -30 -413 -49 -761 -155 -259 -78 -761 -310 -1021
-472 -309 -191 -673 -497 -934 -783 -192 -211 -230 -256 -325 -399 -186 -278
-364 -646 -457 -945 -71 -228 -87 -298 -141 -600 -109 -609 -113 -1202 -10
-1675 28 -130 98 -374 121 -419 11 -21 30 -68 43 -105 12 -36 61 -155 109
-263 47 -109 86 -205 86 -213 0 -56 105 -336 159 -421 46 -74 369 -344 411
-344 5 0 24 -13 42 -29 57 -50 172 -80 389 -101 146 -15 798 -8 849 8 20 7 50
26 67 44 54 56 201 350 358 718 35 80 92 210 128 290 200 442 309 742 293 805
-5 18 1 25 33 40 34 15 60 16 193 12 84 -3 218 -10 298 -15 254 -19 613 -32
1010 -37 671 -10 969 -32 1017 -77 24 -22 53 -100 77 -208 30 -127 83 -261
116 -289 19 -17 43 -57 65 -111 44 -109 48 -206 11 -286 -81 -173 -201 -293
-396 -394 -148 -77 -150 -82 -87 -178 25 -38 57 -76 72 -86 15 -10 58 -48 95
-84 38 -37 90 -80 116 -96 92 -57 272 -81 734 -95 330 -11 1094 11 1106 31 9
14 -13 34 -69 66 -62 36 -233 193 -301 277 -150 186 -246 346 -410 678 -58
117 -148 291 -202 387 -113 205 -194 362 -194 376 0 6 -12 21 -26 35 -14 13
-51 69 -81 124 -31 55 -77 138 -103 185 -161 289 -266 492 -341 655 -33 72
-90 188 -126 259 -36 71 -84 177 -108 235 -73 181 -152 357 -267 596 -61 127
-117 244 -124 262 -8 17 -26 53 -42 80 -15 26 -34 64 -42 83 -8 19 -33 66 -57
105 -24 38 -43 81 -43 95 0 27 -99 181 -196 305 -32 41 -56 84 -60 105 -3 19
-12 57 -20 84 -8 27 -12 52 -9 54 6 7 6 7 32 -48 11 -25 24 -59 28 -77 4 -20
20 -43 41 -60 52 -41 86 -75 117 -116 28 -37 47 -41 47 -9 0 9 -33 77 -73 152
-41 74 -105 202 -143 284 -71 155 -93 184 -199 272 -36 30 -64 67 -100 134
-68 126 -131 210 -159 210 -59 0 -121 -96 -356 -545 -75 -145 -220 -387 -305
-510 -97 -142 -318 -564 -485 -930 -45 -99 -108 -234 -140 -300 -32 -66 -83
-174 -113 -240 -111 -245 -187 -402 -231 -480 -25 -44 -46 -85 -46 -91 0 -6
-8 -22 -19 -35 -48 -61 -77 -136 -79 -207 -3 -67 -2 -72 30 -109 19 -21 45
-55 58 -76 28 -42 119 -103 184 -122 39 -12 41 -14 49 -64 10 -57 -2 -51 145
-75 51 -9 100 -22 108 -31 9 -8 21 -15 27 -15 7 0 8 -3 1 -10 -13 -13 -383 4
-434 20 -31 10 -371 49 -428 50 -44 0 -153 -171 -412 -645 -51 -93 -114 -204
-140 -245 -26 -41 -57 -94 -69 -118 -56 -111 -366 -605 -418 -667 -45 -54 -74
-78 -130 -106 -48 -25 -75 -33 -86 -28 -26 15 -53 70 -66 134 -36 176 -70 256
-171 405 -31 47 -74 119 -95 160 -20 41 -51 102 -67 135 -40 78 -163 427 -206
585 -30 109 -98 457 -117 601 -21 153 -24 557 -6 709 35 299 118 647 216 900
121 313 168 425 291 690 62 133 211 384 286 481 62 83 180 222 252 299 118
126 405 375 532 461 30 21 85 60 122 87 338 251 981 514 1454 596 165 29 322
36 588 26 257 -10 363 -21 565 -59 61 -11 187 -34 280 -51 202 -37 294 -59
435 -104 58 -19 152 -48 209 -66 127 -41 424 -186 552 -270 52 -34 148 -105
214 -158 156 -125 624 -591 655 -652 12 -25 37 -61 55 -81 18 -20 35 -42 37
-50 3 -8 8 -11 12 -8 9 8 -122 347 -145 375 -6 8 -35 63 -64 123 -95 195 -334
525 -472 651 -134 122 -292 219 -558 343 -162 75 -232 101 -525 196 -620 200
-917 259 -1350 266 -118 1 -235 1 -260 -1z m658 -2447 c10 -9 26 -40 37 -69
17 -48 167 -350 185 -373 12 -15 70 -125 173 -326 51 -101 132 -251 179 -334
138 -242 254 -481 302 -620 44 -129 49 -149 47 -172 -1 -16 -211 -17 -756 -3
-209 6 -551 12 -760 16 -209 3 -381 7 -384 9 -2 3 1 10 7 17 24 30 200 396
272 568 91 217 195 456 240 555 53 115 147 338 221 524 43 108 80 186 97 204
24 26 32 28 75 24 26 -2 55 -11 65 -20z m-43 -2137 c154 -6 491 -14 749 -18
l468 -8 19 -23 c20 -25 27 -105 9 -116 -5 -3 -20 1 -32 9 -13 8 -52 20 -88 26
-204 34 -301 42 -610 50 -357 10 -618 24 -740 40 -102 14 -380 42 -405 41 -16
0 -17 2 -5 10 16 11 159 9 635 -11z"/>
<path d="M2566 9513 c-3 -4 -6 -12 -6 -19 0 -14 32 -12 37 3 4 12 -22 25 -31
16z"/>
<path d="M9065 9060 c-598 -4 -953 -10 -975 -17 -121 -35 -170 -104 -196 -275
-16 -108 -10 -167 31 -306 28 -92 100 -144 295 -209 84 -28 89 -28 315 -28
321 0 450 23 692 120 143 57 253 122 422 247 118 88 196 161 343 321 114 123
123 152 53 152 -22 1 -463 -2 -980 -5z"/>
<path d="M846 7653 c-6 -14 -5 -15 5 -6 7 7 10 15 7 18 -3 3 -9 -2 -12 -12z"/>
<path d="M811 7577 c-13 -21 -12 -21 5 -5 10 10 16 20 13 22 -3 3 -11 -5 -18
-17z"/>
<path d="M785 7519 c-4 -6 -5 -12 -2 -15 2 -3 7 2 10 11 7 17 1 20 -8 4z"/>
<path d="M216 7385 c-9 -26 -7 -32 5 -12 6 10 9 21 6 23 -2 3 -7 -2 -11 -11z"/>
<path d="M166 7283 c-6 -14 -5 -15 5 -6 7 7 10 15 7 18 -3 3 -9 -2 -12 -12z"/>
<path d="M330 7255 c0 -10 10 -15 30 -15 20 0 30 5 30 15 0 10 -10 15 -30 15
-20 0 -30 -5 -30 -15z"/>
<path d="M136 7225 c-3 -8 -1 -15 4 -15 6 0 10 7 10 15 0 8 -2 15 -4 15 -2 0
-6 -7 -10 -15z"/>
<path d="M108 7160 c-45 -128 -57 -181 -61 -277 -3 -57 -3 -103 -1 -103 7 0
24 80 29 137 3 32 13 86 24 120 10 34 16 64 14 67 -3 3 0 19 7 35 6 16 10 38
8 48 -3 12 -9 3 -20 -27z"/>
<path d="M5728 7088 c10 -18 36 -62 57 -98 21 -36 57 -94 80 -130 41 -63 126
-240 140 -290 4 -14 17 -36 30 -50 24 -27 65 -102 65 -120 0 -6 11 -26 25 -44
14 -18 25 -38 25 -43 0 -19 40 -100 56 -114 17 -14 96 -166 109 -209 12 -42
171 -359 225 -450 27 -47 50 -90 50 -95 0 -31 162 -368 222 -462 18 -29 48
-79 67 -112 19 -33 37 -58 41 -56 4 2 15 -14 25 -36 30 -66 80 -113 120 -115
26 0 35 3 35 15 0 12 6 9 20 -9 11 -14 20 -21 20 -16 0 4 -13 25 -28 45 -16
20 -53 77 -82 126 -30 50 -61 99 -70 110 -9 11 -29 46 -43 77 -19 42 -31 56
-42 52 -11 -5 -15 1 -15 24 0 30 -71 175 -179 367 -28 50 -79 144 -112 210
-100 197 -251 477 -279 520 -30 45 -252 446 -373 675 -21 41 -45 82 -52 90 -7
8 -20 30 -30 49 -22 44 -94 121 -112 121 -12 0 -11 -6 5 -32z"/>
<path d="M496 6825 c-9 -26 -7 -32 5 -12 6 10 9 21 6 23 -2 3 -7 -2 -11 -11z"/>
<path d="M69 5488 c-8 -7 -28 -32 -44 -56 -28 -43 -29 -44 -17 -115 22 -135
31 -262 42 -572 5 -171 17 -367 25 -435 9 -69 22 -188 30 -265 26 -253 81
-497 146 -660 42 -104 166 -339 229 -435 37 -56 197 -249 273 -328 57 -59 112
-87 143 -73 60 27 19 201 -108 456 -123 248 -205 405 -232 443 -45 66 -114
291 -176 577 -22 105 -49 228 -60 275 -10 47 -21 105 -25 130 -4 25 -17 104
-30 175 -29 159 -42 320 -51 616 -4 125 -9 231 -13 236 -6 10 -90 43 -107 43
-6 0 -17 -6 -25 -12z"/>
<path d="M9861 3503 c-23 -28 -31 -48 -31 -77 l0 -39 24 24 c13 13 41 33 63
44 39 21 68 44 62 49 -10 9 -69 36 -78 36 -5 0 -23 -17 -40 -37z"/>
<path d="M10000 2920 c0 -33 -3 -40 -20 -40 -18 0 -20 -7 -20 -80 0 -73 2 -80
20 -80 18 0 20 -7 20 -80 0 -73 2 -80 20 -80 17 0 20 -7 20 -40 0 -33 3 -40
20 -40 19 0 20 -7 20 -120 0 -113 1 -120 20 -120 17 0 20 -7 20 -40 0 -33 3
-40 20 -40 18 0 20 -7 20 -55 0 -54 15 -105 32 -105 4 0 8 -9 8 -20 0 -13 7
-20 20 -20 20 0 20 7 20 480 l0 480 -40 0 c-33 0 -40 3 -40 20 0 18 -7 20 -80
20 l-80 0 0 -40z"/>
<path d="M5280 2841 c-165 -136 -331 -257 -467 -339 -337 -203 -782 -389
-1089 -453 -282 -59 -553 -87 -953 -99 -179 -6 -347 -12 -373 -13 l-47 -4
-148 151 c-140 143 -234 221 -257 213 -25 -8 4 -262 49 -437 8 -30 21 -113 30
-184 8 -71 18 -132 21 -137 14 -24 36 -373 41 -654 5 -291 2 -395 -24 -787
l-6 -98 256 0 255 0 7 118 c10 157 -2 839 -20 1132 -9 161 -20 259 -34 312
-21 82 -50 147 -75 167 -9 8 -16 19 -16 26 0 7 -13 29 -30 50 -30 38 -46 73
-37 81 7 8 61 -21 77 -41 21 -26 79 -51 145 -65 33 -7 67 -16 75 -20 8 -4 74
-18 145 -30 110 -19 175 -23 415 -25 333 -4 424 3 620 43 131 27 358 105 518
177 19 9 75 32 125 51 198 77 346 165 513 305 357 297 434 386 433 494 0 48
-31 129 -51 133 -7 1 -52 -29 -98 -67z"/>
<path d="M0 2244 c0 -85 4 -143 12 -157 6 -12 11 -35 10 -51 -3 -40 45 -120
150 -253 88 -111 180 -190 360 -312 136 -91 293 -140 407 -127 120 14 167 41
181 101 13 58 -4 78 -82 97 -95 24 -171 74 -303 200 -112 107 -184 188 -268
302 -67 91 -139 156 -257 233 -212 140 -210 140 -210 -33z"/>
<path d="M5723 2329 c-34 -38 -112 -159 -149 -231 -20 -41 -56 -88 -90 -121
l-56 -54 1 -99 c2 -136 18 -167 89 -175 54 -7 140 -47 232 -109 30 -20 71 -42
90 -50 19 -7 60 -28 90 -46 85 -50 233 -124 247 -124 8 0 42 -14 76 -32 134
-68 342 -157 350 -149 9 9 -15 158 -35 221 -6 19 -26 66 -44 104 -19 38 -34
76 -34 83 0 8 -5 11 -10 8 -11 -7 -35 42 -31 64 1 8 -2 17 -7 20 -5 3 -19 24
-31 46 -12 22 -33 58 -46 80 -13 22 -32 56 -40 75 -78 169 -130 254 -182 292
-15 11 -50 43 -78 69 -123 118 -161 140 -255 147 -59 4 -67 2 -87 -19z"/>
<path d="M1135 2179 c-32 -19 -55 -52 -55 -81 0 -19 19 -49 66 -102 73 -83
173 -153 262 -182 52 -16 54 -16 80 3 32 24 44 64 36 123 -9 61 -26 91 -78
137 -97 85 -252 136 -311 102z"/>
<path d="M4718 1901 c-40 -36 -34 -45 18 -28 27 10 40 21 42 35 5 31 -21 28
-60 -7z"/>
<path d="M4790 1790 c-8 -5 -44 -10 -80 -10 -114 0 -176 -63 -158 -158 4 -25
14 -53 21 -63 127 -172 181 -209 417 -288 202 -68 250 -65 325 21 29 34 48 73
82 173 24 72 46 139 49 150 5 18 -4 22 -93 39 -54 10 -145 33 -203 51 -58 19
-149 47 -203 64 -104 33 -133 37 -157 21z"/>
<path d="M3943 558 c-25 -12 -58 -84 -67 -148 -10 -76 -36 -343 -36 -377 l0
-33 480 0 c473 0 480 0 480 20 0 13 7 20 20 20 13 0 20 7 20 20 0 13 7 20 20
20 17 0 20 7 20 40 0 33 -3 40 -20 40 -13 0 -20 7 -20 20 0 13 -7 20 -20 20
-13 0 -20 7 -20 20 0 13 -7 20 -20 20 -13 0 -20 7 -20 20 0 17 -7 20 -40 20
-33 0 -40 3 -40 20 0 13 -7 20 -20 20 -13 0 -20 7 -20 20 0 13 -7 20 -20 20
-18 0 -20 7 -20 55 0 46 3 55 18 55 9 0 24 5 32 11 12 8 12 10 -5 8 -11 -1
-36 1 -55 4 -19 4 -55 9 -80 11 -67 7 -319 46 -365 56 -53 13 -175 11 -202 -2z"/>
<path d="M4773 483 c9 -2 25 -2 35 0 9 3 1 5 -18 5 -19 0 -27 -2 -17 -5z"/>
</g>
</svg>
